<mxfile host="Electron" agent="Mozilla/5.0 (Windows NT 10.0; Win64; x64) AppleWebKit/537.36 (KHTML, like Gecko) draw.io/24.7.17 Chrome/128.0.6613.36 Electron/32.0.1 Safari/537.36" version="24.7.17" pages="7">
  <diagram name="合并K线" id="Wlh-KiL8eT8eEFKsj3go">
    <mxGraphModel dx="2261" dy="836" grid="1" gridSize="10" guides="1" tooltips="1" connect="1" arrows="1" fold="1" page="1" pageScale="1" pageWidth="827" pageHeight="1169" math="0" shadow="0">
      <root>
        <mxCell id="0" />
        <mxCell id="1" parent="0" />
        <mxCell id="z5o7_3_p9fjKzpceReI_-54" value="&amp;nbsp; &amp;nbsp; &amp;nbsp; &amp;nbsp; &amp;nbsp; &amp;nbsp; &amp;nbsp; 简单包含K线处理" style="rounded=1;whiteSpace=wrap;html=1;fillColor=#dae8fc;strokeColor=#6c8ebf;verticalAlign=top;align=left;fontStyle=1;fontSize=14;" parent="1" vertex="1">
          <mxGeometry x="560" y="270" width="280" height="270" as="geometry" />
        </mxCell>
        <mxCell id="z5o7_3_p9fjKzpceReI_-53" style="edgeStyle=orthogonalEdgeStyle;rounded=0;orthogonalLoop=1;jettySize=auto;html=1;exitX=0.5;exitY=1;exitDx=0;exitDy=0;" parent="1" source="z5o7_3_p9fjKzpceReI_-45" target="z5o7_3_p9fjKzpceReI_-51" edge="1">
          <mxGeometry relative="1" as="geometry" />
        </mxCell>
        <mxCell id="z5o7_3_p9fjKzpceReI_-45" value="右包含处理" style="rounded=1;whiteSpace=wrap;html=1;fillColor=#e1d5e7;strokeColor=#9673a6;" parent="1" vertex="1">
          <mxGeometry x="630" y="410" width="80" height="30" as="geometry" />
        </mxCell>
        <mxCell id="z5o7_3_p9fjKzpceReI_-48" style="edgeStyle=orthogonalEdgeStyle;rounded=0;orthogonalLoop=1;jettySize=auto;html=1;exitX=0.5;exitY=1;exitDx=0;exitDy=0;" parent="1" source="z5o7_3_p9fjKzpceReI_-46" target="z5o7_3_p9fjKzpceReI_-45" edge="1">
          <mxGeometry relative="1" as="geometry" />
        </mxCell>
        <mxCell id="z5o7_3_p9fjKzpceReI_-49" style="edgeStyle=orthogonalEdgeStyle;rounded=0;orthogonalLoop=1;jettySize=auto;html=1;exitX=1;exitY=0.5;exitDx=0;exitDy=0;entryX=0.5;entryY=0;entryDx=0;entryDy=0;" parent="1" source="z5o7_3_p9fjKzpceReI_-46" target="z5o7_3_p9fjKzpceReI_-47" edge="1">
          <mxGeometry relative="1" as="geometry" />
        </mxCell>
        <mxCell id="z5o7_3_p9fjKzpceReI_-46" value="右包含" style="rhombus;whiteSpace=wrap;html=1;" parent="1" vertex="1">
          <mxGeometry x="630" y="350" width="80" height="40" as="geometry" />
        </mxCell>
        <mxCell id="z5o7_3_p9fjKzpceReI_-47" value="左包含处理" style="rounded=1;whiteSpace=wrap;html=1;fillColor=#e1d5e7;strokeColor=#9673a6;" parent="1" vertex="1">
          <mxGeometry x="747" y="410" width="80" height="30" as="geometry" />
        </mxCell>
        <mxCell id="z5o7_3_p9fjKzpceReI_-52" style="edgeStyle=orthogonalEdgeStyle;rounded=0;orthogonalLoop=1;jettySize=auto;html=1;exitX=0.5;exitY=1;exitDx=0;exitDy=0;entryX=0.5;entryY=0;entryDx=0;entryDy=0;" parent="1" source="z5o7_3_p9fjKzpceReI_-50" target="z5o7_3_p9fjKzpceReI_-46" edge="1">
          <mxGeometry relative="1" as="geometry" />
        </mxCell>
        <mxCell id="z5o7_3_p9fjKzpceReI_-50" value="开始" style="shape=hexagon;perimeter=hexagonPerimeter2;whiteSpace=wrap;html=1;fixedSize=1;" parent="1" vertex="1">
          <mxGeometry x="620" y="300" width="100" height="30" as="geometry" />
        </mxCell>
        <mxCell id="z5o7_3_p9fjKzpceReI_-51" value="结束" style="shape=hexagon;perimeter=hexagonPerimeter2;whiteSpace=wrap;html=1;fixedSize=1;" parent="1" vertex="1">
          <mxGeometry x="620" y="470" width="100" height="30" as="geometry" />
        </mxCell>
        <mxCell id="z5o7_3_p9fjKzpceReI_-55" value="&amp;nbsp; &amp;nbsp; &amp;nbsp; &amp;nbsp; &amp;nbsp; &amp;nbsp; &amp;nbsp; 复杂包含K线处理" style="rounded=1;whiteSpace=wrap;html=1;fillColor=#dae8fc;strokeColor=#6c8ebf;verticalAlign=top;align=left;fontSize=14;fontStyle=1" parent="1" vertex="1">
          <mxGeometry x="550" y="555" width="510" height="335" as="geometry" />
        </mxCell>
        <mxCell id="z5o7_3_p9fjKzpceReI_-58" style="edgeStyle=orthogonalEdgeStyle;rounded=0;orthogonalLoop=1;jettySize=auto;html=1;exitX=0.5;exitY=1;exitDx=0;exitDy=0;" parent="1" source="z5o7_3_p9fjKzpceReI_-60" target="z5o7_3_p9fjKzpceReI_-65" edge="1">
          <mxGeometry relative="1" as="geometry">
            <mxPoint x="669.9655172413793" y="700" as="targetPoint" />
          </mxGeometry>
        </mxCell>
        <mxCell id="z5o7_3_p9fjKzpceReI_-60" value="右包含" style="rhombus;whiteSpace=wrap;html=1;" parent="1" vertex="1">
          <mxGeometry x="630" y="640" width="80" height="40" as="geometry" />
        </mxCell>
        <mxCell id="z5o7_3_p9fjKzpceReI_-62" style="edgeStyle=orthogonalEdgeStyle;rounded=0;orthogonalLoop=1;jettySize=auto;html=1;exitX=0.5;exitY=1;exitDx=0;exitDy=0;entryX=0.5;entryY=0;entryDx=0;entryDy=0;" parent="1" source="z5o7_3_p9fjKzpceReI_-63" target="z5o7_3_p9fjKzpceReI_-60" edge="1">
          <mxGeometry relative="1" as="geometry" />
        </mxCell>
        <mxCell id="z5o7_3_p9fjKzpceReI_-63" value="开始" style="shape=hexagon;perimeter=hexagonPerimeter2;whiteSpace=wrap;html=1;fixedSize=1;" parent="1" vertex="1">
          <mxGeometry x="620" y="590" width="100" height="30" as="geometry" />
        </mxCell>
        <mxCell id="z5o7_3_p9fjKzpceReI_-64" value="结束" style="shape=hexagon;perimeter=hexagonPerimeter2;whiteSpace=wrap;html=1;fixedSize=1;" parent="1" vertex="1">
          <mxGeometry x="620" y="830" width="100" height="30" as="geometry" />
        </mxCell>
        <mxCell id="z5o7_3_p9fjKzpceReI_-68" style="edgeStyle=orthogonalEdgeStyle;rounded=0;orthogonalLoop=1;jettySize=auto;html=1;exitX=0.5;exitY=1;exitDx=0;exitDy=0;entryX=0.5;entryY=0;entryDx=0;entryDy=0;" parent="1" source="z5o7_3_p9fjKzpceReI_-65" target="z5o7_3_p9fjKzpceReI_-66" edge="1">
          <mxGeometry relative="1" as="geometry" />
        </mxCell>
        <mxCell id="z5o7_3_p9fjKzpceReI_-70" style="edgeStyle=orthogonalEdgeStyle;rounded=0;orthogonalLoop=1;jettySize=auto;html=1;exitX=1;exitY=0.5;exitDx=0;exitDy=0;" parent="1" source="z5o7_3_p9fjKzpceReI_-65" target="z5o7_3_p9fjKzpceReI_-67" edge="1">
          <mxGeometry relative="1" as="geometry" />
        </mxCell>
        <mxCell id="z5o7_3_p9fjKzpceReI_-65" value="向上K线" style="rhombus;whiteSpace=wrap;html=1;" parent="1" vertex="1">
          <mxGeometry x="630" y="701" width="80" height="40" as="geometry" />
        </mxCell>
        <mxCell id="z5o7_3_p9fjKzpceReI_-69" style="edgeStyle=orthogonalEdgeStyle;rounded=0;orthogonalLoop=1;jettySize=auto;html=1;exitX=0.5;exitY=1;exitDx=0;exitDy=0;" parent="1" source="z5o7_3_p9fjKzpceReI_-66" target="z5o7_3_p9fjKzpceReI_-64" edge="1">
          <mxGeometry relative="1" as="geometry" />
        </mxCell>
        <mxCell id="z5o7_3_p9fjKzpceReI_-66" value="向上右包含处理" style="rounded=1;whiteSpace=wrap;html=1;fillColor=#e1d5e7;strokeColor=#9673a6;" parent="1" vertex="1">
          <mxGeometry x="630" y="760" width="80" height="30" as="geometry" />
        </mxCell>
        <mxCell id="z5o7_3_p9fjKzpceReI_-73" style="edgeStyle=orthogonalEdgeStyle;rounded=0;orthogonalLoop=1;jettySize=auto;html=1;exitX=0.5;exitY=1;exitDx=0;exitDy=0;entryX=0.5;entryY=0;entryDx=0;entryDy=0;" parent="1" source="z5o7_3_p9fjKzpceReI_-67" target="z5o7_3_p9fjKzpceReI_-64" edge="1">
          <mxGeometry relative="1" as="geometry">
            <Array as="points">
              <mxPoint x="780" y="810" />
              <mxPoint x="670" y="810" />
            </Array>
          </mxGeometry>
        </mxCell>
        <mxCell id="z5o7_3_p9fjKzpceReI_-67" value="向下右包含处理" style="rounded=1;whiteSpace=wrap;html=1;fillColor=#e1d5e7;strokeColor=#9673a6;" parent="1" vertex="1">
          <mxGeometry x="740" y="706" width="80" height="30" as="geometry" />
        </mxCell>
        <mxCell id="z5o7_3_p9fjKzpceReI_-80" style="edgeStyle=orthogonalEdgeStyle;rounded=0;orthogonalLoop=1;jettySize=auto;html=1;exitX=0.5;exitY=1;exitDx=0;exitDy=0;entryX=0.5;entryY=0;entryDx=0;entryDy=0;" parent="1" source="z5o7_3_p9fjKzpceReI_-74" target="z5o7_3_p9fjKzpceReI_-64" edge="1">
          <mxGeometry relative="1" as="geometry">
            <Array as="points">
              <mxPoint x="1000" y="810" />
              <mxPoint x="670" y="810" />
            </Array>
          </mxGeometry>
        </mxCell>
        <mxCell id="z5o7_3_p9fjKzpceReI_-74" value="向下左包含处理" style="rounded=1;whiteSpace=wrap;html=1;fillColor=#e1d5e7;strokeColor=#9673a6;" parent="1" vertex="1">
          <mxGeometry x="960" y="706" width="80" height="30" as="geometry" />
        </mxCell>
        <mxCell id="z5o7_3_p9fjKzpceReI_-78" style="edgeStyle=orthogonalEdgeStyle;rounded=0;orthogonalLoop=1;jettySize=auto;html=1;exitX=0.5;exitY=1;exitDx=0;exitDy=0;entryX=0.5;entryY=0;entryDx=0;entryDy=0;" parent="1" source="z5o7_3_p9fjKzpceReI_-75" target="z5o7_3_p9fjKzpceReI_-77" edge="1">
          <mxGeometry relative="1" as="geometry" />
        </mxCell>
        <mxCell id="z5o7_3_p9fjKzpceReI_-79" style="edgeStyle=orthogonalEdgeStyle;rounded=0;orthogonalLoop=1;jettySize=auto;html=1;exitX=1;exitY=0.5;exitDx=0;exitDy=0;" parent="1" source="z5o7_3_p9fjKzpceReI_-75" target="z5o7_3_p9fjKzpceReI_-74" edge="1">
          <mxGeometry relative="1" as="geometry" />
        </mxCell>
        <mxCell id="z5o7_3_p9fjKzpceReI_-75" value="向上K线" style="rhombus;whiteSpace=wrap;html=1;" parent="1" vertex="1">
          <mxGeometry x="850" y="701" width="80" height="40" as="geometry" />
        </mxCell>
        <mxCell id="z5o7_3_p9fjKzpceReI_-76" style="edgeStyle=orthogonalEdgeStyle;rounded=0;orthogonalLoop=1;jettySize=auto;html=1;exitX=1;exitY=0.5;exitDx=0;exitDy=0;entryX=0.478;entryY=0.119;entryDx=0;entryDy=0;entryPerimeter=0;" parent="1" source="z5o7_3_p9fjKzpceReI_-60" target="z5o7_3_p9fjKzpceReI_-75" edge="1">
          <mxGeometry relative="1" as="geometry" />
        </mxCell>
        <mxCell id="z5o7_3_p9fjKzpceReI_-81" style="edgeStyle=orthogonalEdgeStyle;rounded=0;orthogonalLoop=1;jettySize=auto;html=1;exitX=0.5;exitY=1;exitDx=0;exitDy=0;entryX=0.5;entryY=0;entryDx=0;entryDy=0;" parent="1" source="z5o7_3_p9fjKzpceReI_-77" target="z5o7_3_p9fjKzpceReI_-64" edge="1">
          <mxGeometry relative="1" as="geometry">
            <Array as="points">
              <mxPoint x="890" y="810" />
              <mxPoint x="670" y="810" />
            </Array>
          </mxGeometry>
        </mxCell>
        <mxCell id="z5o7_3_p9fjKzpceReI_-77" value="向上左包含处理" style="rounded=1;whiteSpace=wrap;html=1;fillColor=#e1d5e7;strokeColor=#9673a6;" parent="1" vertex="1">
          <mxGeometry x="850" y="760" width="80" height="30" as="geometry" />
        </mxCell>
        <mxCell id="z5o7_3_p9fjKzpceReI_-82" value="&lt;h1 style=&quot;margin-top: 0px;&quot;&gt;主逻辑说明&lt;/h1&gt;&lt;p style=&quot;font-size: 15px;&quot;&gt;&lt;font style=&quot;font-size: 15px;&quot;&gt;先拿两根K线来判断，确认是独立K线还是包含K线项。&lt;/font&gt;&lt;/p&gt;&lt;p style=&quot;font-size: 15px;&quot;&gt;&lt;font style=&quot;font-size: 15px;&quot;&gt;然后循环判断是独立K线还是合并K线，独立K线的处理同前，包含K线的话，就得区分方向是向上还是向下的处理。&lt;/font&gt;&lt;/p&gt;&lt;p style=&quot;font-size: 15px;&quot;&gt;独立K线的处理：然后将当前K线索引赋给前K线，将独立K线索引+1，然后将当前K线值赋给独立K线，最后将给定的K线方向赋给全局变量和独立K线的方向&lt;/p&gt;&lt;p style=&quot;font-size: 15px;&quot;&gt;合并K线的处理：将当前的最高最低给到独立K线的最高最低，更新独立K线的极值索引，更新最后K线的索引&lt;/p&gt;&lt;p style=&quot;font-size: 15px;&quot;&gt;&lt;font style=&quot;font-size: 15px;&quot;&gt;&lt;br&gt;&lt;/font&gt;&lt;/p&gt;" style="text;html=1;whiteSpace=wrap;overflow=hidden;rounded=0;" parent="1" vertex="1">
          <mxGeometry x="-200" y="940" width="1040" height="220" as="geometry" />
        </mxCell>
        <mxCell id="xOXY9GwJXC3DuhucZ7PX-25" value="" style="group;fontStyle=1;fontSize=14;" parent="1" vertex="1" connectable="0">
          <mxGeometry x="1195" y="240" width="230" height="330" as="geometry" />
        </mxCell>
        <mxCell id="xOXY9GwJXC3DuhucZ7PX-11" value="&amp;nbsp; &amp;nbsp; &amp;nbsp; &amp;nbsp; &amp;nbsp; &amp;nbsp; &amp;nbsp; &amp;nbsp; &amp;nbsp;独立K线的处理" style="rounded=1;whiteSpace=wrap;html=1;fillColor=#e1d5e7;strokeColor=#9673a6;verticalAlign=top;align=left;movable=1;resizable=1;rotatable=1;deletable=1;editable=1;locked=0;connectable=1;fontStyle=1;fontSize=14;" parent="xOXY9GwJXC3DuhucZ7PX-25" vertex="1">
          <mxGeometry width="230" height="330" as="geometry" />
        </mxCell>
        <mxCell id="xOXY9GwJXC3DuhucZ7PX-3" style="edgeStyle=orthogonalEdgeStyle;rounded=0;orthogonalLoop=1;jettySize=auto;html=1;exitX=0.5;exitY=1;exitDx=0;exitDy=0;" parent="xOXY9GwJXC3DuhucZ7PX-25" source="CYBTUpl9YgCQLdti6vpj-1" edge="1">
          <mxGeometry relative="1" as="geometry">
            <mxPoint x="115" y="75" as="targetPoint" />
          </mxGeometry>
        </mxCell>
        <mxCell id="CYBTUpl9YgCQLdti6vpj-1" value="开始" style="shape=hexagon;perimeter=hexagonPerimeter2;whiteSpace=wrap;html=1;fixedSize=1;" parent="xOXY9GwJXC3DuhucZ7PX-25" vertex="1">
          <mxGeometry x="55" y="25" width="120" height="30" as="geometry" />
        </mxCell>
        <mxCell id="xOXY9GwJXC3DuhucZ7PX-4" style="edgeStyle=orthogonalEdgeStyle;rounded=0;orthogonalLoop=1;jettySize=auto;html=1;exitX=0.5;exitY=1;exitDx=0;exitDy=0;entryX=0.5;entryY=0;entryDx=0;entryDy=0;" parent="xOXY9GwJXC3DuhucZ7PX-25" source="xOXY9GwJXC3DuhucZ7PX-1" target="xOXY9GwJXC3DuhucZ7PX-2" edge="1">
          <mxGeometry relative="1" as="geometry" />
        </mxCell>
        <mxCell id="xOXY9GwJXC3DuhucZ7PX-1" value="当前索引给到前一个" style="rounded=1;whiteSpace=wrap;html=1;" parent="xOXY9GwJXC3DuhucZ7PX-25" vertex="1">
          <mxGeometry x="75" y="75" width="80" height="30" as="geometry" />
        </mxCell>
        <mxCell id="xOXY9GwJXC3DuhucZ7PX-8" style="edgeStyle=orthogonalEdgeStyle;rounded=0;orthogonalLoop=1;jettySize=auto;html=1;exitX=0.5;exitY=1;exitDx=0;exitDy=0;" parent="xOXY9GwJXC3DuhucZ7PX-25" source="xOXY9GwJXC3DuhucZ7PX-2" target="xOXY9GwJXC3DuhucZ7PX-5" edge="1">
          <mxGeometry relative="1" as="geometry" />
        </mxCell>
        <mxCell id="xOXY9GwJXC3DuhucZ7PX-2" value="独立K线索引+1" style="rounded=1;whiteSpace=wrap;html=1;" parent="xOXY9GwJXC3DuhucZ7PX-25" vertex="1">
          <mxGeometry x="75" y="130" width="80" height="30" as="geometry" />
        </mxCell>
        <mxCell id="xOXY9GwJXC3DuhucZ7PX-9" style="edgeStyle=orthogonalEdgeStyle;rounded=0;orthogonalLoop=1;jettySize=auto;html=1;exitX=0.5;exitY=1;exitDx=0;exitDy=0;entryX=0.5;entryY=0;entryDx=0;entryDy=0;" parent="xOXY9GwJXC3DuhucZ7PX-25" source="xOXY9GwJXC3DuhucZ7PX-5" target="xOXY9GwJXC3DuhucZ7PX-6" edge="1">
          <mxGeometry relative="1" as="geometry" />
        </mxCell>
        <mxCell id="xOXY9GwJXC3DuhucZ7PX-5" value="当前索引值赋值给独立K线" style="rounded=1;whiteSpace=wrap;html=1;" parent="xOXY9GwJXC3DuhucZ7PX-25" vertex="1">
          <mxGeometry x="75" y="180" width="80" height="30" as="geometry" />
        </mxCell>
        <mxCell id="xOXY9GwJXC3DuhucZ7PX-10" style="edgeStyle=orthogonalEdgeStyle;rounded=0;orthogonalLoop=1;jettySize=auto;html=1;exitX=0.5;exitY=1;exitDx=0;exitDy=0;entryX=0.5;entryY=0;entryDx=0;entryDy=0;" parent="xOXY9GwJXC3DuhucZ7PX-25" source="xOXY9GwJXC3DuhucZ7PX-6" target="xOXY9GwJXC3DuhucZ7PX-7" edge="1">
          <mxGeometry relative="1" as="geometry" />
        </mxCell>
        <mxCell id="xOXY9GwJXC3DuhucZ7PX-6" value="独立K线方向更新" style="rounded=1;whiteSpace=wrap;html=1;" parent="xOXY9GwJXC3DuhucZ7PX-25" vertex="1">
          <mxGeometry x="75" y="235" width="80" height="30" as="geometry" />
        </mxCell>
        <mxCell id="xOXY9GwJXC3DuhucZ7PX-7" value="结束" style="shape=hexagon;perimeter=hexagonPerimeter2;whiteSpace=wrap;html=1;fixedSize=1;" parent="xOXY9GwJXC3DuhucZ7PX-25" vertex="1">
          <mxGeometry x="55" y="285" width="120" height="30" as="geometry" />
        </mxCell>
        <mxCell id="xOXY9GwJXC3DuhucZ7PX-26" value="" style="group;align=left;" parent="1" vertex="1" connectable="0">
          <mxGeometry x="1195" y="650" width="230" height="330" as="geometry" />
        </mxCell>
        <mxCell id="xOXY9GwJXC3DuhucZ7PX-21" value="&lt;b&gt;&lt;font style=&quot;font-size: 14px;&quot;&gt;包含K线的处理&lt;/font&gt;&lt;/b&gt;" style="rounded=1;whiteSpace=wrap;html=1;fillColor=#e1d5e7;strokeColor=#9673a6;verticalAlign=top;align=center;movable=1;resizable=1;rotatable=1;deletable=1;editable=1;locked=0;connectable=1;" parent="xOXY9GwJXC3DuhucZ7PX-26" vertex="1">
          <mxGeometry width="230" height="330" as="geometry" />
        </mxCell>
        <mxCell id="xOXY9GwJXC3DuhucZ7PX-17" style="edgeStyle=orthogonalEdgeStyle;rounded=0;orthogonalLoop=1;jettySize=auto;html=1;exitX=0.5;exitY=1;exitDx=0;exitDy=0;entryX=0.5;entryY=0;entryDx=0;entryDy=0;" parent="xOXY9GwJXC3DuhucZ7PX-26" source="xOXY9GwJXC3DuhucZ7PX-12" target="xOXY9GwJXC3DuhucZ7PX-13" edge="1">
          <mxGeometry relative="1" as="geometry" />
        </mxCell>
        <mxCell id="xOXY9GwJXC3DuhucZ7PX-12" value="开始" style="shape=hexagon;perimeter=hexagonPerimeter2;whiteSpace=wrap;html=1;fixedSize=1;" parent="xOXY9GwJXC3DuhucZ7PX-26" vertex="1">
          <mxGeometry x="55" y="42" width="120" height="30" as="geometry" />
        </mxCell>
        <mxCell id="xOXY9GwJXC3DuhucZ7PX-18" style="edgeStyle=orthogonalEdgeStyle;rounded=0;orthogonalLoop=1;jettySize=auto;html=1;exitX=0.5;exitY=1;exitDx=0;exitDy=0;" parent="xOXY9GwJXC3DuhucZ7PX-26" source="xOXY9GwJXC3DuhucZ7PX-13" target="xOXY9GwJXC3DuhucZ7PX-14" edge="1">
          <mxGeometry relative="1" as="geometry" />
        </mxCell>
        <mxCell id="xOXY9GwJXC3DuhucZ7PX-13" value="更新独立K线最高和最低" style="rounded=1;whiteSpace=wrap;html=1;" parent="xOXY9GwJXC3DuhucZ7PX-26" vertex="1">
          <mxGeometry x="75" y="102" width="80" height="30" as="geometry" />
        </mxCell>
        <mxCell id="xOXY9GwJXC3DuhucZ7PX-19" style="edgeStyle=orthogonalEdgeStyle;rounded=0;orthogonalLoop=1;jettySize=auto;html=1;exitX=0.5;exitY=1;exitDx=0;exitDy=0;entryX=0.5;entryY=0;entryDx=0;entryDy=0;" parent="xOXY9GwJXC3DuhucZ7PX-26" source="xOXY9GwJXC3DuhucZ7PX-14" target="xOXY9GwJXC3DuhucZ7PX-15" edge="1">
          <mxGeometry relative="1" as="geometry" />
        </mxCell>
        <mxCell id="xOXY9GwJXC3DuhucZ7PX-14" value="更新独立K线索引" style="rounded=1;whiteSpace=wrap;html=1;" parent="xOXY9GwJXC3DuhucZ7PX-26" vertex="1">
          <mxGeometry x="75" y="157" width="80" height="30" as="geometry" />
        </mxCell>
        <mxCell id="xOXY9GwJXC3DuhucZ7PX-20" style="edgeStyle=orthogonalEdgeStyle;rounded=0;orthogonalLoop=1;jettySize=auto;html=1;exitX=0.5;exitY=1;exitDx=0;exitDy=0;" parent="xOXY9GwJXC3DuhucZ7PX-26" source="xOXY9GwJXC3DuhucZ7PX-15" target="xOXY9GwJXC3DuhucZ7PX-16" edge="1">
          <mxGeometry relative="1" as="geometry" />
        </mxCell>
        <mxCell id="xOXY9GwJXC3DuhucZ7PX-15" value="更新极值的索引" style="rounded=1;whiteSpace=wrap;html=1;" parent="xOXY9GwJXC3DuhucZ7PX-26" vertex="1">
          <mxGeometry x="75" y="217" width="80" height="30" as="geometry" />
        </mxCell>
        <mxCell id="xOXY9GwJXC3DuhucZ7PX-16" value="结束" style="shape=hexagon;perimeter=hexagonPerimeter2;whiteSpace=wrap;html=1;fixedSize=1;" parent="xOXY9GwJXC3DuhucZ7PX-26" vertex="1">
          <mxGeometry x="55" y="277" width="120" height="30" as="geometry" />
        </mxCell>
        <mxCell id="XUOkB-4PiXBjHvErGZxO-1" value="zym::_Cal_MERGE" style="text;whiteSpace=wrap;" parent="1" vertex="1">
          <mxGeometry x="-130" y="140" width="110" height="40" as="geometry" />
        </mxCell>
        <mxCell id="4do6VBLTtCmITyZbWXSI-5" value="" style="group" parent="1" vertex="1" connectable="0">
          <mxGeometry x="-210" y="220" width="520" height="690" as="geometry" />
        </mxCell>
        <mxCell id="-YM0lgwAZutqx0cD5pvJ-4" value="&amp;nbsp; &amp;nbsp; &amp;nbsp; &amp;nbsp; &amp;nbsp; &amp;nbsp; &amp;nbsp; &amp;nbsp;K线合并主流程" style="rounded=1;whiteSpace=wrap;html=1;movable=1;resizable=1;rotatable=1;deletable=1;editable=1;locked=0;connectable=1;align=left;verticalAlign=top;fontSize=25;fontStyle=1" parent="4do6VBLTtCmITyZbWXSI-5" vertex="1">
          <mxGeometry width="520" height="690" as="geometry" />
        </mxCell>
        <mxCell id="xOXY9GwJXC3DuhucZ7PX-24" value="" style="group;movable=1;resizable=1;rotatable=1;deletable=1;editable=1;locked=0;connectable=1;" parent="4do6VBLTtCmITyZbWXSI-5" vertex="1" connectable="0">
          <mxGeometry x="90" y="60" width="360" height="560" as="geometry" />
        </mxCell>
        <mxCell id="z5o7_3_p9fjKzpceReI_-7" style="edgeStyle=orthogonalEdgeStyle;rounded=0;orthogonalLoop=1;jettySize=auto;html=1;exitX=0.5;exitY=1;exitDx=0;exitDy=0;movable=1;resizable=1;rotatable=1;deletable=1;editable=1;locked=0;connectable=1;" parent="xOXY9GwJXC3DuhucZ7PX-24" source="z5o7_3_p9fjKzpceReI_-1" target="z5o7_3_p9fjKzpceReI_-6" edge="1">
          <mxGeometry relative="1" as="geometry" />
        </mxCell>
        <mxCell id="z5o7_3_p9fjKzpceReI_-1" value="独立K线处理" style="rounded=1;whiteSpace=wrap;html=1;fillColor=#e1d5e7;strokeColor=#9673a6;movable=1;resizable=1;rotatable=1;deletable=1;editable=1;locked=0;connectable=1;" parent="xOXY9GwJXC3DuhucZ7PX-24" vertex="1">
          <mxGeometry x="40" y="111" width="120" height="30" as="geometry" />
        </mxCell>
        <mxCell id="z5o7_3_p9fjKzpceReI_-4" style="edgeStyle=orthogonalEdgeStyle;rounded=0;orthogonalLoop=1;jettySize=auto;html=1;exitX=0.5;exitY=1;exitDx=0;exitDy=0;entryX=0.5;entryY=0;entryDx=0;entryDy=0;movable=1;resizable=1;rotatable=1;deletable=1;editable=1;locked=0;connectable=1;" parent="xOXY9GwJXC3DuhucZ7PX-24" source="z5o7_3_p9fjKzpceReI_-2" target="z5o7_3_p9fjKzpceReI_-1" edge="1">
          <mxGeometry relative="1" as="geometry" />
        </mxCell>
        <mxCell id="z5o7_3_p9fjKzpceReI_-5" style="edgeStyle=orthogonalEdgeStyle;rounded=0;orthogonalLoop=1;jettySize=auto;html=1;exitX=1;exitY=0.5;exitDx=0;exitDy=0;entryX=0.5;entryY=0;entryDx=0;entryDy=0;movable=1;resizable=1;rotatable=1;deletable=1;editable=1;locked=0;connectable=1;" parent="xOXY9GwJXC3DuhucZ7PX-24" source="z5o7_3_p9fjKzpceReI_-2" target="z5o7_3_p9fjKzpceReI_-3" edge="1">
          <mxGeometry relative="1" as="geometry" />
        </mxCell>
        <mxCell id="z5o7_3_p9fjKzpceReI_-2" value="独立K线" style="rhombus;whiteSpace=wrap;html=1;movable=1;resizable=1;rotatable=1;deletable=1;editable=1;locked=0;connectable=1;" parent="xOXY9GwJXC3DuhucZ7PX-24" vertex="1">
          <mxGeometry x="60" y="50" width="80" height="40" as="geometry" />
        </mxCell>
        <mxCell id="z5o7_3_p9fjKzpceReI_-43" style="edgeStyle=orthogonalEdgeStyle;rounded=0;orthogonalLoop=1;jettySize=auto;html=1;exitX=0.5;exitY=1;exitDx=0;exitDy=0;movable=1;resizable=1;rotatable=1;deletable=1;editable=1;locked=0;connectable=1;" parent="xOXY9GwJXC3DuhucZ7PX-24" source="z5o7_3_p9fjKzpceReI_-3" target="z5o7_3_p9fjKzpceReI_-6" edge="1">
          <mxGeometry relative="1" as="geometry">
            <Array as="points">
              <mxPoint x="280" y="150" />
              <mxPoint x="100" y="150" />
            </Array>
          </mxGeometry>
        </mxCell>
        <mxCell id="z5o7_3_p9fjKzpceReI_-3" value="简单包含K线处理" style="rounded=1;whiteSpace=wrap;html=1;fillColor=#dae8fc;strokeColor=#6c8ebf;movable=1;resizable=1;rotatable=1;deletable=1;editable=1;locked=0;connectable=1;" parent="xOXY9GwJXC3DuhucZ7PX-24" vertex="1">
          <mxGeometry x="220" y="100" width="120" height="30" as="geometry" />
        </mxCell>
        <mxCell id="z5o7_3_p9fjKzpceReI_-14" style="edgeStyle=orthogonalEdgeStyle;rounded=0;orthogonalLoop=1;jettySize=auto;html=1;exitX=0.5;exitY=1;exitDx=0;exitDy=0;entryX=0.5;entryY=0;entryDx=0;entryDy=0;movable=1;resizable=1;rotatable=1;deletable=1;editable=1;locked=0;connectable=1;" parent="xOXY9GwJXC3DuhucZ7PX-24" source="z5o7_3_p9fjKzpceReI_-6" target="z5o7_3_p9fjKzpceReI_-9" edge="1">
          <mxGeometry relative="1" as="geometry">
            <mxPoint x="100" y="239" as="targetPoint" />
          </mxGeometry>
        </mxCell>
        <mxCell id="z5o7_3_p9fjKzpceReI_-6" value="下一根K线设为当前K线" style="rounded=1;whiteSpace=wrap;html=1;movable=1;resizable=1;rotatable=1;deletable=1;editable=1;locked=0;connectable=1;" parent="xOXY9GwJXC3DuhucZ7PX-24" vertex="1">
          <mxGeometry x="40" y="166" width="120" height="30" as="geometry" />
        </mxCell>
        <mxCell id="z5o7_3_p9fjKzpceReI_-15" style="edgeStyle=orthogonalEdgeStyle;rounded=0;orthogonalLoop=1;jettySize=auto;html=1;exitX=0.5;exitY=1;exitDx=0;exitDy=0;movable=1;resizable=1;rotatable=1;deletable=1;editable=1;locked=0;connectable=1;" parent="xOXY9GwJXC3DuhucZ7PX-24" source="z5o7_3_p9fjKzpceReI_-9" target="z5o7_3_p9fjKzpceReI_-12" edge="1">
          <mxGeometry relative="1" as="geometry" />
        </mxCell>
        <mxCell id="z5o7_3_p9fjKzpceReI_-35" style="edgeStyle=orthogonalEdgeStyle;rounded=0;orthogonalLoop=1;jettySize=auto;html=1;exitX=1;exitY=0.5;exitDx=0;exitDy=0;entryX=0.5;entryY=0;entryDx=0;entryDy=0;movable=1;resizable=1;rotatable=1;deletable=1;editable=1;locked=0;connectable=1;" parent="xOXY9GwJXC3DuhucZ7PX-24" source="z5o7_3_p9fjKzpceReI_-9" target="z5o7_3_p9fjKzpceReI_-37" edge="1">
          <mxGeometry relative="1" as="geometry">
            <mxPoint x="100" y="456" as="targetPoint" />
            <Array as="points">
              <mxPoint x="360" y="250" />
              <mxPoint x="360" y="513" />
              <mxPoint x="100" y="513" />
            </Array>
          </mxGeometry>
        </mxCell>
        <mxCell id="z5o7_3_p9fjKzpceReI_-9" value="存在下一根" style="rhombus;whiteSpace=wrap;html=1;movable=1;resizable=1;rotatable=1;deletable=1;editable=1;locked=0;connectable=1;" parent="xOXY9GwJXC3DuhucZ7PX-24" vertex="1">
          <mxGeometry x="60" y="230" width="80" height="40" as="geometry" />
        </mxCell>
        <mxCell id="z5o7_3_p9fjKzpceReI_-27" style="edgeStyle=orthogonalEdgeStyle;rounded=0;orthogonalLoop=1;jettySize=auto;html=1;movable=1;resizable=1;rotatable=1;deletable=1;editable=1;locked=0;connectable=1;" parent="xOXY9GwJXC3DuhucZ7PX-24" source="z5o7_3_p9fjKzpceReI_-11" target="z5o7_3_p9fjKzpceReI_-23" edge="1">
          <mxGeometry relative="1" as="geometry" />
        </mxCell>
        <mxCell id="z5o7_3_p9fjKzpceReI_-11" value="独立K线处理" style="rounded=1;whiteSpace=wrap;html=1;fillColor=#e1d5e7;strokeColor=#9673a6;movable=1;resizable=1;rotatable=1;deletable=1;editable=1;locked=0;connectable=1;" parent="xOXY9GwJXC3DuhucZ7PX-24" vertex="1">
          <mxGeometry x="40" y="345" width="120" height="30" as="geometry" />
        </mxCell>
        <mxCell id="z5o7_3_p9fjKzpceReI_-16" style="edgeStyle=orthogonalEdgeStyle;rounded=0;orthogonalLoop=1;jettySize=auto;html=1;exitX=0.5;exitY=1;exitDx=0;exitDy=0;movable=1;resizable=1;rotatable=1;deletable=1;editable=1;locked=0;connectable=1;" parent="xOXY9GwJXC3DuhucZ7PX-24" source="z5o7_3_p9fjKzpceReI_-12" target="z5o7_3_p9fjKzpceReI_-11" edge="1">
          <mxGeometry relative="1" as="geometry" />
        </mxCell>
        <mxCell id="z5o7_3_p9fjKzpceReI_-26" style="edgeStyle=orthogonalEdgeStyle;rounded=0;orthogonalLoop=1;jettySize=auto;html=1;exitX=1;exitY=0.5;exitDx=0;exitDy=0;entryX=0.5;entryY=0;entryDx=0;entryDy=0;movable=1;resizable=1;rotatable=1;deletable=1;editable=1;locked=0;connectable=1;" parent="xOXY9GwJXC3DuhucZ7PX-24" source="z5o7_3_p9fjKzpceReI_-12" target="z5o7_3_p9fjKzpceReI_-13" edge="1">
          <mxGeometry relative="1" as="geometry">
            <mxPoint x="274" y="323" as="targetPoint" />
          </mxGeometry>
        </mxCell>
        <mxCell id="z5o7_3_p9fjKzpceReI_-12" value="独立K线" style="rhombus;whiteSpace=wrap;html=1;movable=1;resizable=1;rotatable=1;deletable=1;editable=1;locked=0;connectable=1;" parent="xOXY9GwJXC3DuhucZ7PX-24" vertex="1">
          <mxGeometry x="60" y="285" width="80" height="40" as="geometry" />
        </mxCell>
        <mxCell id="z5o7_3_p9fjKzpceReI_-28" style="edgeStyle=orthogonalEdgeStyle;rounded=0;orthogonalLoop=1;jettySize=auto;html=1;exitX=0.5;exitY=1;exitDx=0;exitDy=0;entryX=0.5;entryY=0;entryDx=0;entryDy=0;movable=1;resizable=1;rotatable=1;deletable=1;editable=1;locked=0;connectable=1;" parent="xOXY9GwJXC3DuhucZ7PX-24" source="z5o7_3_p9fjKzpceReI_-13" target="z5o7_3_p9fjKzpceReI_-23" edge="1">
          <mxGeometry relative="1" as="geometry">
            <Array as="points">
              <mxPoint x="280" y="383" />
              <mxPoint x="100" y="383" />
            </Array>
          </mxGeometry>
        </mxCell>
        <mxCell id="z5o7_3_p9fjKzpceReI_-13" value="复杂包含K线处理" style="rounded=1;whiteSpace=wrap;html=1;fillColor=#dae8fc;strokeColor=#6c8ebf;movable=1;resizable=1;rotatable=1;deletable=1;editable=1;locked=0;connectable=1;" parent="xOXY9GwJXC3DuhucZ7PX-24" vertex="1">
          <mxGeometry x="220" y="325" width="120" height="30" as="geometry" />
        </mxCell>
        <mxCell id="z5o7_3_p9fjKzpceReI_-42" style="edgeStyle=orthogonalEdgeStyle;rounded=0;orthogonalLoop=1;jettySize=auto;html=1;exitX=0.5;exitY=1;exitDx=0;exitDy=0;movable=1;resizable=1;rotatable=1;deletable=1;editable=1;locked=0;connectable=1;" parent="xOXY9GwJXC3DuhucZ7PX-24" source="z5o7_3_p9fjKzpceReI_-23" target="z5o7_3_p9fjKzpceReI_-36" edge="1">
          <mxGeometry relative="1" as="geometry" />
        </mxCell>
        <mxCell id="z5o7_3_p9fjKzpceReI_-23" value="下一根K线设为当前K线" style="rounded=1;whiteSpace=wrap;html=1;movable=1;resizable=1;rotatable=1;deletable=1;editable=1;locked=0;connectable=1;" parent="xOXY9GwJXC3DuhucZ7PX-24" vertex="1">
          <mxGeometry x="40" y="401" width="120" height="30" as="geometry" />
        </mxCell>
        <mxCell id="z5o7_3_p9fjKzpceReI_-34" style="edgeStyle=orthogonalEdgeStyle;rounded=0;orthogonalLoop=1;jettySize=auto;html=1;movable=1;resizable=1;rotatable=1;deletable=1;editable=1;locked=0;connectable=1;" parent="xOXY9GwJXC3DuhucZ7PX-24" source="z5o7_3_p9fjKzpceReI_-31" edge="1">
          <mxGeometry relative="1" as="geometry">
            <mxPoint x="100" y="33" as="sourcePoint" />
            <mxPoint x="100" y="51" as="targetPoint" />
          </mxGeometry>
        </mxCell>
        <mxCell id="z5o7_3_p9fjKzpceReI_-31" value="开始" style="shape=hexagon;perimeter=hexagonPerimeter2;whiteSpace=wrap;html=1;fixedSize=1;movable=1;resizable=1;rotatable=1;deletable=1;editable=1;locked=0;connectable=1;" parent="xOXY9GwJXC3DuhucZ7PX-24" vertex="1">
          <mxGeometry x="40" width="120" height="30" as="geometry" />
        </mxCell>
        <mxCell id="z5o7_3_p9fjKzpceReI_-38" style="edgeStyle=orthogonalEdgeStyle;rounded=0;orthogonalLoop=1;jettySize=auto;html=1;exitX=0.5;exitY=1;exitDx=0;exitDy=0;movable=1;resizable=1;rotatable=1;deletable=1;editable=1;locked=0;connectable=1;" parent="xOXY9GwJXC3DuhucZ7PX-24" source="z5o7_3_p9fjKzpceReI_-36" target="z5o7_3_p9fjKzpceReI_-37" edge="1">
          <mxGeometry relative="1" as="geometry" />
        </mxCell>
        <mxCell id="z5o7_3_p9fjKzpceReI_-39" style="edgeStyle=orthogonalEdgeStyle;rounded=0;orthogonalLoop=1;jettySize=auto;html=1;exitX=0.5;exitY=1;exitDx=0;exitDy=0;entryX=0.5;entryY=0;entryDx=0;entryDy=0;movable=1;resizable=1;rotatable=1;deletable=1;editable=1;locked=0;connectable=1;" parent="xOXY9GwJXC3DuhucZ7PX-24" source="z5o7_3_p9fjKzpceReI_-36" target="z5o7_3_p9fjKzpceReI_-9" edge="1">
          <mxGeometry relative="1" as="geometry">
            <Array as="points">
              <mxPoint x="100" y="500" />
              <mxPoint y="500" />
              <mxPoint y="210" />
              <mxPoint x="100" y="210" />
            </Array>
          </mxGeometry>
        </mxCell>
        <mxCell id="z5o7_3_p9fjKzpceReI_-36" value="做结束判断" style="rounded=1;whiteSpace=wrap;html=1;movable=1;resizable=1;rotatable=1;deletable=1;editable=1;locked=0;connectable=1;" parent="xOXY9GwJXC3DuhucZ7PX-24" vertex="1">
          <mxGeometry x="40" y="463" width="120" height="30" as="geometry" />
        </mxCell>
        <mxCell id="z5o7_3_p9fjKzpceReI_-37" value="结束" style="shape=hexagon;perimeter=hexagonPerimeter2;whiteSpace=wrap;html=1;fixedSize=1;movable=1;resizable=1;rotatable=1;deletable=1;editable=1;locked=0;connectable=1;" parent="xOXY9GwJXC3DuhucZ7PX-24" vertex="1">
          <mxGeometry x="40" y="530" width="120" height="30" as="geometry" />
        </mxCell>
        <mxCell id="4do6VBLTtCmITyZbWXSI-2" value="" style="endArrow=classic;html=1;rounded=0;" parent="xOXY9GwJXC3DuhucZ7PX-24" edge="1">
          <mxGeometry width="50" height="50" relative="1" as="geometry">
            <mxPoint x="160" y="383" as="sourcePoint" />
            <mxPoint x="100" y="383" as="targetPoint" />
            <Array as="points">
              <mxPoint x="110" y="383.28999999999996" />
            </Array>
          </mxGeometry>
        </mxCell>
        <mxCell id="4do6VBLTtCmITyZbWXSI-3" value="" style="endArrow=classic;html=1;rounded=0;" parent="xOXY9GwJXC3DuhucZ7PX-24" edge="1">
          <mxGeometry width="50" height="50" relative="1" as="geometry">
            <mxPoint x="160" y="150" as="sourcePoint" />
            <mxPoint x="100" y="150" as="targetPoint" />
            <Array as="points">
              <mxPoint x="110" y="150.28999999999996" />
            </Array>
          </mxGeometry>
        </mxCell>
        <mxCell id="4do6VBLTtCmITyZbWXSI-4" value="" style="endArrow=classic;html=1;rounded=0;" parent="xOXY9GwJXC3DuhucZ7PX-24" edge="1">
          <mxGeometry width="50" height="50" relative="1" as="geometry">
            <mxPoint x="160" y="513" as="sourcePoint" />
            <mxPoint x="100" y="513" as="targetPoint" />
            <Array as="points">
              <mxPoint x="110" y="513.29" />
            </Array>
          </mxGeometry>
        </mxCell>
        <mxCell id="4do6VBLTtCmITyZbWXSI-1" value="" style="endArrow=classic;html=1;rounded=0;" parent="4do6VBLTtCmITyZbWXSI-5" edge="1">
          <mxGeometry width="50" height="50" relative="1" as="geometry">
            <mxPoint x="120" y="270" as="sourcePoint" />
            <mxPoint x="190" y="270" as="targetPoint" />
          </mxGeometry>
        </mxCell>
      </root>
    </mxGraphModel>
  </diagram>
  <diagram id="937l6dygLL2qVydj_A3m" name="K线合并（纯K线）">
    <mxGraphModel dx="2514" dy="2153" grid="1" gridSize="10" guides="1" tooltips="1" connect="1" arrows="1" fold="1" page="1" pageScale="1" pageWidth="827" pageHeight="1169" math="0" shadow="0">
      <root>
        <mxCell id="0" />
        <mxCell id="1" parent="0" />
        <mxCell id="kLfcGwVqnguCsisxY2NT-6" style="edgeStyle=orthogonalEdgeStyle;rounded=0;orthogonalLoop=1;jettySize=auto;html=1;exitX=0.5;exitY=1;exitDx=0;exitDy=0;fontSize=16;" edge="1" parent="1" source="kLfcGwVqnguCsisxY2NT-2" target="kLfcGwVqnguCsisxY2NT-3">
          <mxGeometry relative="1" as="geometry" />
        </mxCell>
        <mxCell id="kLfcGwVqnguCsisxY2NT-2" value="选定K线1至N" style="rounded=1;whiteSpace=wrap;html=1;fontSize=16;" vertex="1" parent="1">
          <mxGeometry x="240" y="120" width="120" height="60" as="geometry" />
        </mxCell>
        <mxCell id="kLfcGwVqnguCsisxY2NT-12" style="edgeStyle=orthogonalEdgeStyle;rounded=0;orthogonalLoop=1;jettySize=auto;html=1;exitX=0.5;exitY=1;exitDx=0;exitDy=0;fontSize=16;" edge="1" parent="1" source="kLfcGwVqnguCsisxY2NT-3" target="kLfcGwVqnguCsisxY2NT-7">
          <mxGeometry relative="1" as="geometry" />
        </mxCell>
        <mxCell id="kLfcGwVqnguCsisxY2NT-46" style="edgeStyle=orthogonalEdgeStyle;rounded=0;orthogonalLoop=1;jettySize=auto;html=1;exitX=0;exitY=0.5;exitDx=0;exitDy=0;fontSize=16;" edge="1" parent="1" source="kLfcGwVqnguCsisxY2NT-3" target="kLfcGwVqnguCsisxY2NT-36">
          <mxGeometry relative="1" as="geometry">
            <Array as="points">
              <mxPoint x="200" y="240" />
              <mxPoint x="200" y="710" />
              <mxPoint x="300" y="710" />
            </Array>
          </mxGeometry>
        </mxCell>
        <mxCell id="kLfcGwVqnguCsisxY2NT-3" value="包含关系（和前一根）" style="rhombus;whiteSpace=wrap;html=1;fontSize=16;" vertex="1" parent="1">
          <mxGeometry x="260" y="200" width="80" height="80" as="geometry" />
        </mxCell>
        <mxCell id="kLfcGwVqnguCsisxY2NT-13" style="edgeStyle=orthogonalEdgeStyle;rounded=0;orthogonalLoop=1;jettySize=auto;html=1;exitX=0.5;exitY=1;exitDx=0;exitDy=0;fontSize=16;" edge="1" parent="1" source="kLfcGwVqnguCsisxY2NT-7" target="kLfcGwVqnguCsisxY2NT-8">
          <mxGeometry relative="1" as="geometry" />
        </mxCell>
        <mxCell id="kLfcGwVqnguCsisxY2NT-28" style="edgeStyle=orthogonalEdgeStyle;rounded=0;orthogonalLoop=1;jettySize=auto;html=1;entryX=0.5;entryY=0;entryDx=0;entryDy=0;fontSize=16;" edge="1" parent="1" source="kLfcGwVqnguCsisxY2NT-7" target="kLfcGwVqnguCsisxY2NT-15">
          <mxGeometry relative="1" as="geometry" />
        </mxCell>
        <mxCell id="kLfcGwVqnguCsisxY2NT-7" value="当前是第一根" style="rhombus;whiteSpace=wrap;html=1;fontSize=16;" vertex="1" parent="1">
          <mxGeometry x="260" y="300" width="80" height="80" as="geometry" />
        </mxCell>
        <mxCell id="kLfcGwVqnguCsisxY2NT-38" style="edgeStyle=orthogonalEdgeStyle;rounded=0;orthogonalLoop=1;jettySize=auto;html=1;exitX=0.5;exitY=1;exitDx=0;exitDy=0;fontSize=16;" edge="1" parent="1" source="kLfcGwVqnguCsisxY2NT-8" target="kLfcGwVqnguCsisxY2NT-36">
          <mxGeometry relative="1" as="geometry" />
        </mxCell>
        <mxCell id="kLfcGwVqnguCsisxY2NT-8" value="针对第一根的处理" style="rounded=1;whiteSpace=wrap;html=1;fontSize=16;" vertex="1" parent="1">
          <mxGeometry x="240" y="400" width="120" height="60" as="geometry" />
        </mxCell>
        <mxCell id="kLfcGwVqnguCsisxY2NT-22" style="edgeStyle=orthogonalEdgeStyle;rounded=0;orthogonalLoop=1;jettySize=auto;html=1;exitX=0.5;exitY=1;exitDx=0;exitDy=0;fontSize=16;" edge="1" parent="1" source="kLfcGwVqnguCsisxY2NT-15" target="kLfcGwVqnguCsisxY2NT-18">
          <mxGeometry relative="1" as="geometry" />
        </mxCell>
        <mxCell id="kLfcGwVqnguCsisxY2NT-15" value="索引全部回退一格" style="rounded=1;whiteSpace=wrap;html=1;fontSize=16;" vertex="1" parent="1">
          <mxGeometry x="520" y="380" width="120" height="60" as="geometry" />
        </mxCell>
        <mxCell id="kLfcGwVqnguCsisxY2NT-23" style="edgeStyle=orthogonalEdgeStyle;rounded=0;orthogonalLoop=1;jettySize=auto;html=1;exitX=0.5;exitY=1;exitDx=0;exitDy=0;fontSize=16;" edge="1" parent="1" source="kLfcGwVqnguCsisxY2NT-18" target="kLfcGwVqnguCsisxY2NT-19">
          <mxGeometry relative="1" as="geometry" />
        </mxCell>
        <mxCell id="kLfcGwVqnguCsisxY2NT-18" value="往前找直到找不不包含的为止" style="rounded=1;whiteSpace=wrap;html=1;fontSize=16;" vertex="1" parent="1">
          <mxGeometry x="520" y="470" width="120" height="60" as="geometry" />
        </mxCell>
        <mxCell id="kLfcGwVqnguCsisxY2NT-24" style="edgeStyle=orthogonalEdgeStyle;rounded=0;orthogonalLoop=1;jettySize=auto;html=1;exitX=0.5;exitY=1;exitDx=0;exitDy=0;fontSize=16;" edge="1" parent="1" source="kLfcGwVqnguCsisxY2NT-19" target="kLfcGwVqnguCsisxY2NT-21">
          <mxGeometry relative="1" as="geometry" />
        </mxCell>
        <mxCell id="kLfcGwVqnguCsisxY2NT-40" style="edgeStyle=orthogonalEdgeStyle;rounded=0;orthogonalLoop=1;jettySize=auto;html=1;exitX=0;exitY=0.5;exitDx=0;exitDy=0;entryX=1;entryY=0.5;entryDx=0;entryDy=0;fontSize=16;" edge="1" parent="1" source="kLfcGwVqnguCsisxY2NT-19" target="kLfcGwVqnguCsisxY2NT-39">
          <mxGeometry relative="1" as="geometry" />
        </mxCell>
        <mxCell id="kLfcGwVqnguCsisxY2NT-19" value="判断方向" style="rhombus;whiteSpace=wrap;html=1;fontSize=16;" vertex="1" parent="1">
          <mxGeometry x="540" y="560" width="80" height="80" as="geometry" />
        </mxCell>
        <mxCell id="kLfcGwVqnguCsisxY2NT-41" style="edgeStyle=orthogonalEdgeStyle;rounded=0;orthogonalLoop=1;jettySize=auto;html=1;exitX=0;exitY=0.5;exitDx=0;exitDy=0;entryX=0.5;entryY=0;entryDx=0;entryDy=0;fontSize=16;" edge="1" parent="1" source="kLfcGwVqnguCsisxY2NT-21">
          <mxGeometry relative="1" as="geometry">
            <mxPoint x="300" y="730" as="targetPoint" />
          </mxGeometry>
        </mxCell>
        <mxCell id="kLfcGwVqnguCsisxY2NT-21" value="向下的处理（包含向前追溯）" style="rounded=1;whiteSpace=wrap;html=1;fontSize=16;" vertex="1" parent="1">
          <mxGeometry x="520" y="660" width="120" height="60" as="geometry" />
        </mxCell>
        <mxCell id="kLfcGwVqnguCsisxY2NT-30" value="向下" style="text;html=1;align=center;verticalAlign=middle;whiteSpace=wrap;rounded=0;fontSize=16;" vertex="1" parent="1">
          <mxGeometry x="580" y="630" width="60" height="30" as="geometry" />
        </mxCell>
        <mxCell id="kLfcGwVqnguCsisxY2NT-35" style="edgeStyle=orthogonalEdgeStyle;rounded=0;orthogonalLoop=1;jettySize=auto;html=1;exitX=0.5;exitY=1;exitDx=0;exitDy=0;entryX=0.5;entryY=0;entryDx=0;entryDy=0;fontSize=16;" edge="1" parent="1" source="kLfcGwVqnguCsisxY2NT-34" target="kLfcGwVqnguCsisxY2NT-2">
          <mxGeometry relative="1" as="geometry" />
        </mxCell>
        <mxCell id="kLfcGwVqnguCsisxY2NT-34" value="开始" style="shape=hexagon;perimeter=hexagonPerimeter2;whiteSpace=wrap;html=1;fixedSize=1;fontSize=16;" vertex="1" parent="1">
          <mxGeometry x="240" width="120" height="80" as="geometry" />
        </mxCell>
        <mxCell id="kLfcGwVqnguCsisxY2NT-43" style="edgeStyle=orthogonalEdgeStyle;rounded=0;orthogonalLoop=1;jettySize=auto;html=1;exitX=0.5;exitY=1;exitDx=0;exitDy=0;entryX=0.5;entryY=0;entryDx=0;entryDy=0;fontSize=16;" edge="1" parent="1" source="kLfcGwVqnguCsisxY2NT-36" target="kLfcGwVqnguCsisxY2NT-2">
          <mxGeometry relative="1" as="geometry">
            <Array as="points">
              <mxPoint x="300" y="840" />
              <mxPoint x="700" y="840" />
              <mxPoint x="700" y="100" />
              <mxPoint x="300" y="100" />
            </Array>
          </mxGeometry>
        </mxCell>
        <mxCell id="kLfcGwVqnguCsisxY2NT-50" style="edgeStyle=orthogonalEdgeStyle;rounded=0;orthogonalLoop=1;jettySize=auto;html=1;exitX=0;exitY=0.5;exitDx=0;exitDy=0;fontSize=16;" edge="1" parent="1" source="kLfcGwVqnguCsisxY2NT-36" target="kLfcGwVqnguCsisxY2NT-37">
          <mxGeometry relative="1" as="geometry" />
        </mxCell>
        <mxCell id="kLfcGwVqnguCsisxY2NT-36" value="还有下一根" style="rhombus;whiteSpace=wrap;html=1;fontSize=16;" vertex="1" parent="1">
          <mxGeometry x="260" y="730" width="80" height="80" as="geometry" />
        </mxCell>
        <mxCell id="kLfcGwVqnguCsisxY2NT-37" value="结束" style="shape=hexagon;perimeter=hexagonPerimeter2;whiteSpace=wrap;html=1;fixedSize=1;fontSize=16;" vertex="1" parent="1">
          <mxGeometry x="70" y="730" width="120" height="80" as="geometry" />
        </mxCell>
        <mxCell id="kLfcGwVqnguCsisxY2NT-42" style="edgeStyle=orthogonalEdgeStyle;rounded=0;orthogonalLoop=1;jettySize=auto;html=1;exitX=0;exitY=0.5;exitDx=0;exitDy=0;fontSize=16;" edge="1" parent="1" source="kLfcGwVqnguCsisxY2NT-39">
          <mxGeometry relative="1" as="geometry">
            <mxPoint x="300" y="730" as="targetPoint" />
            <Array as="points">
              <mxPoint x="301" y="600" />
              <mxPoint x="301" y="730" />
            </Array>
          </mxGeometry>
        </mxCell>
        <mxCell id="kLfcGwVqnguCsisxY2NT-39" value="向上的处理（包含向前追溯）" style="rounded=1;whiteSpace=wrap;html=1;fontSize=16;" vertex="1" parent="1">
          <mxGeometry x="360" y="570" width="120" height="60" as="geometry" />
        </mxCell>
        <mxCell id="kLfcGwVqnguCsisxY2NT-47" value="" style="endArrow=classic;html=1;rounded=0;fontSize=16;" edge="1" parent="1">
          <mxGeometry width="50" height="50" relative="1" as="geometry">
            <mxPoint x="210" y="710" as="sourcePoint" />
            <mxPoint x="300" y="710" as="targetPoint" />
          </mxGeometry>
        </mxCell>
        <mxCell id="kLfcGwVqnguCsisxY2NT-48" value="" style="endArrow=classic;html=1;rounded=0;fontSize=16;" edge="1" parent="1">
          <mxGeometry width="50" height="50" relative="1" as="geometry">
            <mxPoint x="420" y="689.58" as="sourcePoint" />
            <mxPoint x="300" y="689.58" as="targetPoint" />
          </mxGeometry>
        </mxCell>
        <mxCell id="kLfcGwVqnguCsisxY2NT-49" value="" style="endArrow=classic;html=1;rounded=0;fontSize=16;" edge="1" parent="1">
          <mxGeometry width="50" height="50" relative="1" as="geometry">
            <mxPoint x="340" y="600" as="sourcePoint" />
            <mxPoint x="300" y="599.58" as="targetPoint" />
          </mxGeometry>
        </mxCell>
        <mxCell id="kLfcGwVqnguCsisxY2NT-51" value="向上" style="text;html=1;align=center;verticalAlign=middle;whiteSpace=wrap;rounded=0;fontSize=16;" vertex="1" parent="1">
          <mxGeometry x="490" y="570" width="60" height="30" as="geometry" />
        </mxCell>
        <mxCell id="kLfcGwVqnguCsisxY2NT-52" value="很明显，如果第一根开始出现合并逻辑，且第三根，第四根都是合并，这儿的逻辑就不对了，" style="text;html=1;align=center;verticalAlign=middle;whiteSpace=wrap;rounded=0;fontSize=14;" vertex="1" parent="1">
          <mxGeometry x="-480" y="120" width="500" height="30" as="geometry" />
        </mxCell>
        <mxCell id="12Dppz6CjjRyMvsS0rEl-1" value="CFormularComputeParent::Cal_MERGE" style="text;whiteSpace=wrap;" vertex="1" parent="1">
          <mxGeometry x="210" y="-70" width="250" height="40" as="geometry" />
        </mxCell>
      </root>
    </mxGraphModel>
  </diagram>
  <diagram id="ejSWp-timorrHSXuDCiU" name="get_node">
    <mxGraphModel dx="989" dy="577" grid="1" gridSize="10" guides="1" tooltips="1" connect="1" arrows="1" fold="1" page="1" pageScale="1" pageWidth="827" pageHeight="1169" math="0" shadow="0">
      <root>
        <mxCell id="0" />
        <mxCell id="1" parent="0" />
      </root>
    </mxGraphModel>
  </diagram>
  <diagram id="CT8SJTARR59u9GZW4MyE" name="第 4 页">
    <mxGraphModel dx="1434" dy="836" grid="1" gridSize="10" guides="1" tooltips="1" connect="1" arrows="1" fold="1" page="1" pageScale="1" pageWidth="827" pageHeight="1169" math="0" shadow="0">
      <root>
        <mxCell id="0" />
        <mxCell id="1" parent="0" />
      </root>
    </mxGraphModel>
  </diagram>
  <diagram id="6vVRRFF8SH8M2t9WWWLm" name="第 5 页">
    <mxGraphModel dx="1195" dy="1866" grid="1" gridSize="10" guides="1" tooltips="1" connect="1" arrows="1" fold="1" page="1" pageScale="1" pageWidth="827" pageHeight="1169" math="0" shadow="0">
      <root>
        <mxCell id="0" />
        <mxCell id="1" parent="0" />
        <mxCell id="R11K3M7y3Eh-I73Bgc5e-1" value="" style="whiteSpace=wrap;html=1;aspect=fixed;" vertex="1" parent="1">
          <mxGeometry x="160" y="200" width="200" height="200" as="geometry" />
        </mxCell>
        <mxCell id="R11K3M7y3Eh-I73Bgc5e-2" value="" style="whiteSpace=wrap;html=1;aspect=fixed;rotation=307;movable=1;resizable=1;rotatable=1;deletable=1;editable=1;locked=0;connectable=1;" vertex="1" parent="1">
          <mxGeometry x="264" y="8" width="160" height="160" as="geometry" />
        </mxCell>
        <mxCell id="R11K3M7y3Eh-I73Bgc5e-3" value="" style="whiteSpace=wrap;html=1;aspect=fixed;rotation=37;movable=1;resizable=1;rotatable=1;deletable=1;editable=1;locked=0;connectable=1;" vertex="1" parent="1">
          <mxGeometry x="88" y="56" width="120" height="120" as="geometry" />
        </mxCell>
      </root>
    </mxGraphModel>
  </diagram>
  <diagram id="p5_8ws-Iyub5Rk9_Uq_h" name="段算法">
    <mxGraphModel dx="1434" dy="836" grid="1" gridSize="10" guides="1" tooltips="1" connect="1" arrows="1" fold="1" page="1" pageScale="1" pageWidth="827" pageHeight="1169" math="0" shadow="0">
      <root>
        <mxCell id="0" />
        <mxCell id="1" parent="0" />
      </root>
    </mxGraphModel>
  </diagram>
  <diagram id="fPD2yfhnEAGNxrBoX2gF" name="中枢计算">
    <mxGraphModel dx="819" dy="478" grid="1" gridSize="10" guides="1" tooltips="1" connect="1" arrows="1" fold="1" page="1" pageScale="1" pageWidth="827" pageHeight="1169" math="0" shadow="0">
      <root>
        <mxCell id="0" />
        <mxCell id="1" parent="0" />
        <mxCell id="lKM4mLEk0MZDHEqf7wDN-1" value="第一个底分型底与 第二个底分型顶有交集" style="rhombus;whiteSpace=wrap;html=1;" parent="1" vertex="1">
          <mxGeometry x="360" y="310" width="80" height="80" as="geometry" />
        </mxCell>
        <mxCell id="lKM4mLEk0MZDHEqf7wDN-2" value="" style="rounded=1;whiteSpace=wrap;html=1;" parent="1" vertex="1">
          <mxGeometry x="340" y="220" width="120" height="60" as="geometry" />
        </mxCell>
        <mxCell id="UhgGu0j_3xGjNlRaWsT8-1" value="找到顶和底（高中取低，低中取高）" style="rounded=1;whiteSpace=wrap;html=1;" vertex="1" parent="1">
          <mxGeometry x="340" y="430" width="120" height="60" as="geometry" />
        </mxCell>
      </root>
    </mxGraphModel>
  </diagram>
</mxfile>
